<svg width="14" height="16" viewBox="0 0 14 16" fill="none" xmlns="http://www.w3.org/2000/svg">
<g clip-path="url(#clip0_54_149)">
<path d="M13.4875 4.52921C13.1456 3.57102 12.6643 2.75544 12.0435 2.08247C11.4233 1.41065 10.6859 0.894616 9.83154 0.537228C8.97714 0.179267 8.0327 0 7.00059 0C5.96848 0 5.02404 0.179267 4.16846 0.537228C3.31406 0.894616 2.57734 1.41065 1.95654 2.08247C1.33574 2.75544 0.854405 3.57102 0.513702 4.52921C0.171234 5.4874 0 6.56758 0 7.76747V8.47308C0 9.67354 0.171234 10.7514 0.513702 11.7062C0.854405 12.6609 1.33927 13.4748 1.96713 14.1466C2.02068 14.2039 2.07482 14.26 2.13072 14.3144C2.72209 14.9061 3.40938 15.3654 4.19141 15.693C4.47915 15.8133 4.77749 15.9141 5.08524 15.9931L7.00588 13.7703L8.93183 16C9.2484 15.9198 9.5538 15.8173 9.84802 15.693C10.6236 15.3666 11.3038 14.9095 11.8869 14.3213C11.944 14.2646 11.9999 14.2062 12.0546 14.1466C12.6754 13.4748 13.155 12.6609 13.4928 11.7062C13.8311 10.7514 14 9.67354 14 8.47308V7.76747C14 6.56758 13.8288 5.4874 13.4875 4.52921ZM10.3329 8.47308C10.3329 9.26861 10.2605 9.97595 10.1158 10.5945C10.024 10.9851 9.90509 11.3379 9.75916 11.6518C9.67266 11.8345 9.57851 12.004 9.47495 12.1615C9.1925 12.5888 8.84474 12.9101 8.43225 13.1266C8.01976 13.3442 7.5496 13.4525 7.02236 13.4525C6.49512 13.4525 5.99084 13.3442 5.57835 13.1266C5.16703 12.9101 4.81927 12.5888 4.53741 12.1615C4.43326 12.004 4.33911 11.8345 4.25319 11.6518C4.10726 11.3379 3.98781 10.9851 3.89602 10.5945C3.75126 9.97595 3.67888 9.26861 3.67888 8.47308V7.74628C3.67888 6.94273 3.75126 6.23253 3.89602 5.61455C4.04136 4.99599 4.25319 4.47652 4.53152 4.05727C4.81044 3.63803 5.15291 3.32188 5.56187 3.10767C5.97083 2.89462 6.4504 2.78809 7.00059 2.78809C7.55077 2.78809 7.99975 2.89462 8.41577 3.10767C8.83238 3.32188 9.18073 3.63803 9.46377 4.05727C9.74622 4.47652 9.96158 4.99599 10.1105 5.61455C10.2587 6.23253 10.3329 6.94273 10.3329 7.74628V8.47308Z" fill="#212121"/>
<path d="M9.75918 11.6518L9.44495 11.2572L7.00649 8.19473L4.56802 11.2572L4.2538 11.6518L2.13132 14.3144C2.72269 14.9061 3.40998 15.3654 4.19201 15.693C4.47975 15.8133 4.77809 15.9141 5.08584 15.9931L7.00649 13.7703L8.93243 16C9.24842 15.9198 9.55381 15.8173 9.84803 15.693C10.6236 15.3666 11.3038 14.9095 11.8869 14.3213L9.75918 11.6518Z" fill="#02B8DF"/>
</g>
<defs>
<clipPath id="clip0_54_149">
<rect width="14" height="16" fill="white"/>
</clipPath>
</defs>
</svg>
