<svg width="155" height="120" viewBox="0 0 155 120" fill="none" xmlns="http://www.w3.org/2000/svg">
<path d="M135.838 66.515C135.85 66.2756 135.86 66.0845 135.871 65.8943C135.969 64.2111 136.122 62.5297 136.154 60.8456C136.218 57.5506 135.996 54.2699 135.531 51.0043C135.009 47.3307 134.18 43.7294 132.991 40.2174C129.304 29.3376 123.126 20.1393 114.227 12.8448C104.567 4.92514 93.4705 0.635377 80.9771 0.0558489C77.1562 -0.120956 73.3495 0.124607 69.5696 0.755926C63.8592 1.7105 58.4291 3.49819 53.2857 6.15206C44.3552 10.7597 37.1232 17.2819 31.5333 25.6104C25.1763 35.0829 21.817 45.5626 21.2491 56.9371C21.0652 60.6161 21.2196 64.2897 21.6983 67.949C22.3064 72.5951 23.4065 77.1152 25.0415 81.505C27.9865 89.4112 32.378 96.4138 38.2519 102.472C43.064 107.436 48.5887 111.423 54.8349 114.397C59.2336 116.491 63.835 117.963 68.6222 118.864C72.0958 119.518 75.6167 119.732 79.1341 119.923C82.3835 120.099 85.6294 119.972 88.8646 119.555C92.4784 119.089 96.0154 118.298 99.4658 117.135C108.571 114.064 116.384 108.975 122.955 101.984C129.198 95.3413 133.662 87.6432 136.441 78.9636C137.632 75.2445 138.433 71.4414 138.913 67.5686C138.963 67.165 138.985 66.7578 139.022 66.3381C137.938 66.398 136.918 66.4542 135.838 66.5132V66.515ZM134.597 67.0141C134.152 70.6029 133.411 74.1274 132.307 77.5733C129.732 85.6153 125.595 92.7491 119.81 98.9042C113.722 105.382 106.482 110.097 98.0451 112.943C94.8474 114.022 91.5702 114.754 88.2217 115.185C85.224 115.571 82.2156 115.69 79.2055 115.527C75.9462 115.35 72.6842 115.152 69.4651 114.546C65.0298 113.711 60.766 112.347 56.6896 110.406C50.9015 107.651 45.7822 103.957 41.3227 99.357C35.8802 93.7421 31.811 87.2538 29.0821 79.928C27.5668 75.8606 26.547 71.6718 25.9836 67.3668C25.5398 63.9754 25.3969 60.5714 25.5674 57.1621C26.0934 46.6217 29.2062 36.9108 35.0971 28.1339C40.2771 20.4152 46.9778 14.3726 55.2537 10.1025C60.0194 7.64329 65.0513 5.98686 70.3429 5.10194C73.846 4.51616 77.3723 4.28846 80.9137 4.45276C92.4909 4.98943 102.773 8.96487 111.725 16.3032C119.972 23.0628 125.695 31.587 129.112 41.6676C130.215 44.9215 130.983 48.2585 131.467 51.6624C131.897 54.6886 132.102 57.7283 132.043 60.7813C132.013 62.3422 131.872 63.9004 131.781 65.4595C131.77 65.6363 131.762 65.8131 131.751 66.0345C132.752 65.9792 133.696 65.9274 134.701 65.872C134.667 66.2605 134.646 66.6382 134.6 67.0123L134.597 67.0141Z" fill="#282923"/>
<path d="M127.857 65.0471C127.941 63.6058 128.071 62.1664 128.1 60.7243C128.155 57.9025 127.964 55.0942 127.567 52.2975C127.12 49.1516 126.411 46.0682 125.392 43.0616C122.234 33.7454 116.945 25.8687 109.325 19.6224C101.052 12.8413 91.5513 9.16771 80.8528 8.67212C77.581 8.52031 74.3217 8.73105 71.0848 9.27218C66.195 10.0892 61.5453 11.6207 57.1413 13.8923C49.494 17.8374 43.3014 23.422 38.5151 30.5549C33.0717 38.6656 30.1955 47.6389 29.7088 57.3793C29.5516 60.5296 29.6838 63.6755 30.0937 66.8089C30.6143 70.787 31.5563 74.658 32.9565 78.4164C35.4782 85.1868 39.2384 91.1821 44.2684 96.3711C48.3885 100.622 53.1194 104.034 58.4682 106.581C62.2347 108.374 66.1744 109.635 70.274 110.407C73.2484 110.966 76.263 111.149 79.275 111.312C82.0574 111.463 84.8372 111.354 87.6071 110.997C90.7021 110.599 93.7301 109.921 96.6849 108.924C104.481 106.294 111.171 101.937 116.798 95.9514C122.144 90.2633 125.967 83.6715 128.346 76.2394C129.366 73.0551 130.051 69.7976 130.463 66.4821C130.506 66.1365 130.524 65.7873 130.556 65.4284C129.627 65.4793 128.755 65.5275 127.829 65.5784C127.84 65.3739 127.848 65.2105 127.858 65.0471H127.857ZM112.851 66.1606C112.583 68.3171 112.138 70.4352 111.475 72.5059C109.927 77.3386 107.441 81.6257 103.965 85.3243C100.307 89.2167 95.9554 92.0509 90.8852 93.761C88.9635 94.4092 86.9946 94.8495 84.9818 95.1084C83.1808 95.3406 81.3725 95.4111 79.5634 95.3129C77.6042 95.2067 75.6442 95.0879 73.7101 94.7236C71.0446 94.2217 68.4827 93.402 66.0324 92.2358C62.5535 90.5794 59.4773 88.3604 56.7984 85.5958C53.5275 82.2213 51.0826 78.3226 49.4422 73.9195C48.5314 71.4755 47.9188 68.9582 47.5804 66.3704C47.3134 64.3327 47.2277 62.287 47.3304 60.2385C47.6465 53.9039 49.5172 48.0684 53.0569 42.7937C56.1697 38.1557 60.197 34.5241 65.1698 31.9577C68.0336 30.4799 71.058 29.4842 74.2378 28.9529C76.3434 28.6011 78.4624 28.4645 80.5903 28.5627C87.5473 28.8851 93.7266 31.2737 99.1066 35.684C104.063 39.7461 107.502 44.869 109.555 50.9268C110.218 52.8823 110.679 54.8879 110.97 56.9337C111.228 58.7517 111.352 60.5787 111.316 62.4138C111.298 63.3514 111.212 64.2881 111.158 65.2248C111.152 65.331 111.146 65.4373 111.139 65.5704C111.741 65.5373 112.308 65.5061 112.913 65.473C112.892 65.707 112.88 65.9338 112.852 66.1579L112.851 66.1606Z" fill="#A53023"/>
<path d="M111.157 65.2265C111.211 64.2898 111.296 63.3531 111.315 62.4155C111.35 60.5805 111.226 58.7535 110.968 56.9354C110.677 54.8897 110.216 52.8841 109.554 50.9285C107.501 44.8707 104.06 39.7478 99.1053 35.6858C93.7253 31.2755 87.5469 28.8868 80.589 28.5644C78.4611 28.4662 76.3421 28.6028 74.2365 28.9547C71.0567 29.486 68.0332 30.4816 65.1686 31.9595C60.1957 34.5249 56.1685 38.1566 53.0556 42.7955C49.5159 48.0702 47.6452 53.9056 47.3291 60.2402C47.2264 62.2887 47.313 64.3344 47.5791 66.3722C47.9175 68.9591 48.5301 71.4763 49.4409 73.9212C51.0813 78.3244 53.5262 82.223 56.7971 85.5975C59.4769 88.3621 62.5531 90.5811 66.0311 92.2375C68.4805 93.4037 71.0424 94.2235 73.7088 94.7253C75.6429 95.0896 77.6039 95.2084 79.5621 95.3146C81.3712 95.4129 83.1795 95.3414 84.9806 95.1102C86.9933 94.8512 88.9622 94.411 90.8839 93.7627C95.9541 92.0527 100.305 89.2184 103.964 85.326C107.441 81.6274 109.926 77.3403 111.474 72.5077C112.137 70.4369 112.583 68.3188 112.85 66.1623C112.877 65.9373 112.89 65.7105 112.91 65.4774C112.307 65.5105 111.739 65.5417 111.137 65.5748C111.144 65.4417 111.15 65.3355 111.156 65.2292L111.157 65.2265Z" fill="#FAC617"/>
<path d="M30.3687 66.7755C29.9704 63.7296 29.8418 60.6721 29.9945 57.6102C30.4669 48.1431 33.2627 39.4216 38.5535 31.5386C43.2058 24.6066 49.2243 19.1783 56.6573 15.3439C60.9381 13.1357 65.4574 11.648 70.2097 10.8533C73.3556 10.3273 76.5238 10.1228 79.7036 10.2702C90.102 10.7524 99.3361 14.3224 107.377 20.9133C114.783 26.9845 119.924 34.6398 122.993 43.6944C123.983 46.617 124.673 49.6138 125.108 52.6713C125.494 55.3894 125.679 58.1192 125.626 60.8615C125.606 61.883 125.533 62.9027 125.463 63.9234L129.314 63.7627C129.379 62.8152 129.439 61.8678 129.458 60.9195C129.516 57.9522 129.315 54.9974 128.897 52.0569C128.427 48.7485 127.681 45.5044 126.609 42.3425C123.288 32.5441 117.725 24.2592 109.71 17.6897C101.009 10.5568 91.0155 6.69388 79.7625 6.1724C76.3211 6.01256 72.893 6.23401 69.4882 6.80282C64.3456 7.66274 59.4549 9.27274 54.8223 11.6623C46.7794 15.8119 40.2662 21.6857 35.2317 29.1874C29.507 37.7187 26.4807 47.1564 25.97 57.4013C25.8048 60.715 25.9432 64.0234 26.3745 67.3193C26.4066 67.5658 26.4406 67.8113 26.4763 68.0569L30.5258 67.8881C30.4696 67.5184 30.416 67.1479 30.3669 66.7764L30.3687 66.7755Z" fill="#282923"/>
<path d="M130.824 65.6086C130.858 65.0318 130.898 64.4549 130.938 63.8781L127.025 64.0415C126.999 64.4272 126.973 64.8139 126.95 65.1996C126.941 65.3612 126.933 65.522 126.923 65.7247C127.835 65.6747 128.698 65.6274 129.614 65.5765C129.584 65.931 129.91 66.2756 129.867 66.6168C129.461 69.8903 128.784 73.1059 127.777 76.2491C125.428 83.5856 121.654 90.0934 116.376 95.7083C110.822 101.617 103.872 105.919 96.1748 108.515C93.2575 109.499 90.2679 110.167 87.2131 110.561C84.4788 110.913 81.7339 111.021 78.9871 110.872C76.0136 110.71 73.0374 110.531 70.1005 109.978C66.0536 109.216 62.1639 107.971 58.4456 106.201C53.1647 103.687 48.4945 100.318 44.4271 96.1218C39.4623 90.9998 35.7493 85.0813 33.2598 78.3975C32.0105 75.0436 31.131 71.5994 30.5943 68.0678L26.4805 68.2392C27.0537 72.2263 28.028 76.1115 29.4362 79.8905C32.1302 87.1235 36.1476 93.5286 41.5214 99.0712C45.9237 103.612 50.9769 107.258 56.6918 109.979C60.7164 111.894 64.9249 113.242 69.3039 114.066C72.482 114.664 75.7029 114.859 78.9202 115.034C81.8928 115.195 84.8628 115.078 87.822 114.697C91.1278 114.271 94.3638 113.548 97.5204 112.483C105.85 109.674 112.997 105.019 119.009 98.6247C124.721 92.5482 128.804 85.5063 131.346 77.5671C132.436 74.1649 133.168 70.6859 133.607 67.1427C133.653 66.773 133.674 66.4007 133.707 66.0167C132.714 66.0712 131.782 66.1229 130.794 66.1774C130.805 65.9586 130.814 65.7836 130.824 65.6095V65.6086Z" fill="#282923"/>
<path d="M131.779 65.4611C131.87 63.902 132.011 62.3429 132.042 60.783C132.102 57.7299 131.895 54.6903 131.465 51.6641C130.981 48.2601 130.213 44.9223 129.11 41.6692C125.694 31.5878 119.969 23.0645 111.724 16.3048C102.772 8.96654 92.4893 4.9911 80.9121 4.45443C77.3715 4.29013 73.8443 4.51783 70.3413 5.10361C65.0496 5.98853 60.0178 7.64496 55.2521 10.1042C46.9771 14.3734 40.2755 20.4169 35.0954 28.1356C29.2055 36.9125 26.0927 46.6234 25.5658 57.1638C25.3953 60.5731 25.539 63.9771 25.9819 67.3685C26.5454 71.6734 27.5651 75.8623 29.0805 79.9297C31.8094 87.2564 35.8786 93.7446 41.3211 99.3586C45.7796 103.958 50.899 107.651 56.688 110.408C60.7643 112.348 65.0273 113.713 69.4635 114.548C72.6826 115.154 75.9446 115.351 79.2039 115.528C82.2149 115.692 85.2233 115.574 88.22 115.187C91.5686 114.756 94.8458 114.023 98.0434 112.945C106.48 110.099 113.72 105.383 119.808 98.9059C125.594 92.7508 129.73 85.6169 132.305 77.575C133.409 74.1291 134.15 70.6046 134.596 67.0158C134.642 66.6416 134.663 66.2639 134.697 65.8755C133.692 65.9308 132.747 65.9826 131.746 66.038C131.758 65.8165 131.767 65.6397 131.777 65.4629L131.779 65.4611ZM131.035 66.4818C130.624 69.7982 130.053 73.0548 129.033 76.2391C126.654 83.6712 122.832 90.263 117.485 95.9511C111.858 101.937 104.479 106.295 96.6817 108.924C93.7269 109.92 90.6989 110.597 87.6039 110.997C84.8339 111.354 82.0542 111.463 79.2717 111.312C76.2598 111.148 73.2452 110.966 70.2707 110.406C66.1721 109.635 62.2324 108.374 58.465 106.581C53.1162 104.034 48.3853 100.621 44.2652 96.3708C39.2361 91.1827 35.4758 85.1865 32.9532 78.4161C31.5531 74.6577 30.611 70.7867 30.0904 66.8086C29.6805 63.6752 29.5484 60.5294 29.7056 57.379C30.1913 47.6387 33.0684 38.6653 38.5119 30.5546C43.2981 23.4226 49.4908 17.838 57.138 13.8921C61.5421 11.6195 66.1917 10.089 71.0815 9.27193C74.3185 8.73079 77.5778 8.52006 80.8496 8.67186C91.5481 9.16834 101.049 12.8411 109.321 19.6222C116.942 25.8684 122.231 33.7452 125.388 43.0614C126.407 46.0679 127.117 49.1522 127.564 52.2972C127.961 55.093 128.151 57.9023 128.097 60.724C128.069 62.1661 127.938 63.6065 127.854 65.0468C127.844 65.2102 127.836 65.3736 127.825 65.5781C128.75 65.5272 129.623 65.479 130.551 65.4281C130.52 65.7871 131.077 66.1362 131.034 66.4818H131.035Z" fill="#FAC617"/>
<path d="M154.601 63.1832C154.464 62.5072 154.319 61.8321 154.213 61.1517C153.441 56.1351 152.678 51.1184 151.91 46.1027C151.195 41.4263 150.471 36.7517 149.764 32.0744C149.6 30.9912 148.979 30.2795 147.994 29.9366C147.487 29.7607 146.899 29.7482 146.352 29.7688C143.307 29.8822 140.264 30.0313 137.222 30.1652C135.34 30.2483 133.483 30.409 131.729 31.2153C131.226 31.4466 130.614 31.4431 130.053 31.5457C129.633 31.6225 129.41 31.4306 129.21 31.0546C128.907 30.4822 128.331 29.6607 128.011 29.1008L124.58 30.4269C124.683 30.6358 124.077 30.6171 124.184 30.8233C124.332 31.1082 123.523 31.535 123.207 31.5547C122.06 31.6279 121.15 31.8717 121.115 31.8502L120.05 32.011L119.464 32.0404L118.889 32.0833C118.042 32.1753 117.29 32.2485 116.541 32.3405C116.169 32.3878 115.793 32.4449 115.429 32.5369C114.566 32.7575 113.849 33.204 113.227 33.8639C112.839 34.2782 112.32 34.5764 111.835 34.8899C111.413 35.1613 111.073 34.9524 111.08 34.463C111.099 33.212 110.424 32.4833 109.158 32.4896C107.551 32.4976 105.944 32.561 104.337 32.6146C103.075 32.6575 101.815 32.7307 100.554 32.778C98.9714 32.837 97.706 33.6335 96.4282 34.4568C95.8692 34.8157 95.7406 35.2962 95.6254 35.856C95.2272 37.7991 94.7932 39.735 94.4137 41.6817C94.1244 43.164 93.8976 44.6588 93.6386 46.1465C93.6118 46.3009 93.5618 46.451 93.4073 46.5912C93.3002 46.0232 93.1716 45.4589 93.0903 44.8883C92.6939 42.1451 92.3144 39.3993 91.9188 36.6561C91.8429 36.1275 91.7857 35.5819 91.6107 35.0836C91.2348 34.004 89.9641 33.1102 88.8042 33.1432C85.3591 33.2397 81.9088 33.2915 78.4727 33.5317C76.5573 33.6665 74.9232 34.6657 73.7284 36.173C71.9969 38.359 70.7575 40.8512 69.5395 43.3497C69.2154 44.0159 68.8082 44.6409 68.4376 45.2848C68.393 45.2696 68.3465 45.2562 68.301 45.241C68.3885 44.5775 68.4599 43.9123 68.5635 43.2506C68.9805 40.5842 69.4136 37.9206 69.8262 35.2542C69.9378 34.5309 69.7467 34.2853 69.0109 34.1433C68.7314 34.0907 68.4403 34.071 68.1555 34.0791C65.1167 34.1559 62.0717 34.1585 59.0411 34.355C57.1185 34.4791 55.3907 35.2667 54.0084 36.6865C53.6815 37.0213 53.3235 37.325 52.8975 37.7179C52.8484 37.458 52.777 37.1571 52.735 36.8508C52.7055 36.624 52.7341 36.39 52.7002 36.1632C52.6243 35.6435 52.3251 35.3292 51.784 35.339C49.932 35.3685 48.0791 35.4033 46.228 35.4631L42.333 35.5748C41.5382 35.4881 40.8024 35.6944 40.0702 36.09C39.3817 36.4624 38.6192 36.6776 38.0102 37.2285C37.8619 37.3616 37.428 37.2285 37.1422 37.1517C36.4421 36.9651 35.8706 36.3784 36.0403 35.6846L35.7688 35.5917C35.125 35.3917 34.4901 35.1953 33.8445 34.9952C33.1971 34.7943 32.0809 34.4077 31.3898 34.1925C31.563 33.8817 31.1746 34.4282 31.3407 34.121L27.0911 33.5486C27.0661 33.6013 26.9393 33.7049 26.9152 33.7576C26.7759 34.0549 26.5232 34.3085 26.0883 34.3148C20.6484 34.3755 15.2103 34.463 9.77045 34.5496C9.36951 34.555 8.95875 34.5648 8.57032 34.6497C7.46662 34.8934 6.27274 35.2104 5.90127 36.3775C5.53873 37.5169 5.50212 38.7653 5.36996 39.9717C5.28603 40.7477 5.36639 41.5468 5.23424 42.3112C4.86366 44.4409 4.43504 46.5608 4.00285 48.6789C3.0965 53.124 2.15622 57.5611 1.26505 62.0089C0.806069 64.2985 0.369414 66.5951 0.022054 68.9052C-0.202078 70.4009 1.34541 70.717 1.79904 70.8036L3.81712 70.7697C3.82515 70.7331 3.76354 71.026 3.77157 70.9894C3.9966 70.9653 4.22252 70.9287 4.44754 70.9206C4.61452 70.9153 4.77972 70.909 4.9467 70.9045C6.08254 70.8679 7.21838 70.8376 8.35422 70.7956C16.3908 70.4965 24.4283 70.1955 32.4649 69.8946C35.2116 69.7919 37.9584 69.6866 40.7069 69.583C41.3293 69.5589 41.9508 69.5205 42.5741 69.5231C43.0964 69.524 43.6179 69.5723 44.1412 69.6017C44.0296 69.9214 43.9064 70.0607 43.7769 70.1929C41.79 72.2199 39.9586 74.3397 38.9799 77.0865C38.4656 78.5295 38.0075 79.9609 37.8075 81.4914C37.4967 83.8792 37.8387 86.1062 38.9478 88.2582C40.2881 90.8603 42.2785 92.6668 45.0726 93.5356C47.0388 94.1473 49.0819 94.1589 51.0973 93.9678C53.1511 93.7731 55.0754 92.9686 57.0114 92.2926C58.3758 91.8158 59.6884 91.1827 61.0064 90.5817C61.4235 90.3924 61.6467 90.4897 61.9298 90.8148C63.2129 92.2935 64.8435 93.2106 66.7785 93.4499C68.0224 93.6026 69.2904 93.5669 70.5495 93.5776C71.4085 93.5847 72.2818 93.6088 73.1274 93.4811C75.6616 93.0981 78.1816 92.681 80.7586 92.6069C85.0287 92.4837 89.2944 92.2426 93.5609 92.0435C94.1914 92.014 94.8218 91.9667 95.4451 91.8792C95.9799 91.8042 96.6175 91.8122 97.0131 91.5184C98.2284 90.6121 99.3732 89.6048 100.496 88.5833C100.888 88.2243 101.083 88.2395 101.397 88.6279C101.701 89.0065 102.04 89.3762 102.428 89.6629C103.64 90.5594 105.006 91.1693 106.498 91.3577C108.296 91.5827 110.107 91.7068 111.923 91.4631C113.29 91.2791 114.596 90.9068 115.855 90.3513C117.478 89.6352 118.833 88.527 120.18 87.4099C121.488 86.3259 122.734 85.2061 123.457 83.5827C124.458 81.3369 124.81 79.101 123.887 76.7507C123.675 76.2078 123.548 75.6301 123.4 75.1291C124.738 74.3531 126.044 73.6414 127.302 72.8512C128.165 72.3109 128.956 71.66 129.787 71.068C129.977 70.9331 130.107 70.7233 130.282 70.7599C130.463 69.9794 130.069 68.4337 130.385 67.7533C130.7 67.0711 131.839 67.2541 132.015 66.4308C132.102 66.0281 132.227 66.0754 132.668 66.0576C138.544 65.8093 144.417 65.3102 150.291 65.0584C151.047 65.0253 151.806 65.0539 152.627 65.0539L153.111 65.0378L153.667 64.9905C154.609 64.5878 154.802 64.1904 154.598 63.1841L154.601 63.1832Z" fill="#282923"/>
<path d="M4.24609 66.8899C4.41129 66.1104 4.59524 65.2585 4.77115 64.4048C4.95689 63.5003 5.13101 62.593 5.31585 61.6885C5.7659 59.4811 6.21863 57.2737 6.67136 55.0663C7.26607 52.1687 7.88042 49.2746 8.44924 46.3725C8.66444 45.2724 8.73677 44.1446 8.94661 43.0427C9.1886 41.7711 9.51007 40.5138 9.7976 39.2512C9.83153 39.102 9.86546 38.952 9.89939 38.8029C9.99494 38.3841 9.95833 37.8037 10.2209 37.5912C10.5004 37.3643 11.0611 37.4697 11.5005 37.4545C15.5384 37.3206 19.5755 37.1581 23.6152 37.0741C26.1646 37.0206 28.6399 37.4358 30.9919 38.5047C33.6475 39.7119 35.1727 41.8345 35.5969 44.6053C36.3773 49.7023 35.3504 54.4734 32.4188 58.7649C30.9705 60.8848 29.064 62.5073 26.8289 63.7807C24.8448 64.9111 22.7472 65.7228 20.5166 66.1211C19.1174 66.3711 17.6744 66.38 16.251 66.4926C14.7678 66.6095 13.2846 66.722 11.8014 66.8354C11.554 66.8542 11.3058 66.8863 11.0576 66.8872C8.82338 66.8917 6.58921 66.8899 4.24699 66.8899H4.24609ZM14.9982 59.4739C15.3098 59.5016 15.4991 59.5409 15.6849 59.5302C16.6198 59.4748 17.5574 59.4373 18.4878 59.3373C21.4944 59.0123 23.8545 57.5862 25.4234 55.0002C26.6352 53.0027 26.9316 50.7694 26.7155 48.4691C26.5423 46.6243 25.0716 45.0679 22.941 44.9884C21.3542 44.9295 19.7639 44.9571 18.1744 44.9482C18.0289 44.9482 17.8833 44.9634 17.7529 44.9705C16.8323 49.8175 15.9206 54.6189 14.9982 59.4748V59.4739Z" fill="#FAC617"/>
<path d="M40.9005 37.4805C43.983 37.3822 47.1146 37.2822 50.398 37.1768C49.8372 40.3326 49.2863 43.4275 48.7273 46.5743C49.4265 46.5743 50.1051 46.5993 50.782 46.569C52.3884 46.4984 53.9939 46.3939 55.6013 46.3243C55.9236 46.31 56.0683 46.2189 56.1406 45.8858C56.3871 44.7527 56.6996 43.6338 56.9353 42.498C57.1595 41.4193 57.3032 40.3245 57.5095 39.2423C57.6488 38.5127 57.8051 37.7823 58.0256 37.0751C58.0756 36.9143 58.4176 36.7572 58.632 36.7473C60.4491 36.6643 62.269 36.617 64.087 36.5554C64.7951 36.5312 65.5024 36.4857 66.2105 36.4696C66.9588 36.4518 66.9954 36.5196 66.8605 37.2536C66.4105 39.7003 65.9712 42.1497 65.5274 44.5973C64.8469 48.345 64.1763 52.0955 63.4798 55.8405C62.9547 58.6622 62.3958 61.4777 61.8502 64.2959C61.8287 64.4075 61.7966 64.5165 61.7671 64.6352C58.7489 64.7531 55.745 64.8701 52.6081 64.9924C53.3153 61.3179 53.9984 57.7702 54.7047 54.1037C53.8707 54.1037 53.059 54.085 52.2482 54.1073C50.6918 54.151 49.1363 54.2448 47.5798 54.2573C47.1244 54.2609 46.9271 54.368 46.8432 54.8154C46.2136 58.1631 45.5537 61.5054 44.9412 64.8567C44.8367 65.4264 44.6536 65.6541 44.0393 65.6711C41.4363 65.7434 38.836 65.8755 36.2339 65.9827C36.008 65.9916 35.7821 65.9836 35.541 65.9836C37.3305 56.4683 39.1093 47.0047 40.9005 37.4796V37.4805Z" fill="#FAC617"/>
<path d="M140.499 56.422C138.713 56.5068 136.98 56.6006 135.246 56.6685C134.177 56.7104 133.105 56.6935 132.038 56.7488C131.869 56.7578 131.648 56.9756 131.56 57.1524C130.926 58.416 130.284 59.6777 129.72 60.9725C129.423 61.6538 129.096 61.9807 128.265 61.9842C125.873 61.9932 123.484 62.1441 121.092 62.2325C120.857 62.2414 120.619 62.2093 120.348 62.1941C121.012 60.835 121.646 59.5509 122.269 58.2624C123.793 55.1138 125.292 51.9528 126.839 48.8149C127.714 47.0406 128.69 45.3163 129.572 43.5447C130.696 41.2864 131.783 39.0094 132.862 36.7288C133.385 35.6251 133.844 34.4919 134.362 33.3864C134.426 33.2489 134.676 33.1275 134.845 33.1203C137.792 32.9971 140.739 32.8944 143.687 32.7846C144.299 32.7614 144.913 32.7462 145.523 32.6935C145.911 32.6605 146.053 32.7908 146.11 33.1855C146.513 35.9492 146.943 38.7093 147.362 41.4713C147.753 44.0448 148.125 46.6218 148.536 49.1926C148.954 51.817 149.413 54.4343 149.847 57.0569C150.038 58.2088 150.203 59.3652 150.39 60.5171C150.468 60.9984 150.263 61.1618 149.797 61.177C147.099 61.2654 144.401 61.3663 141.704 61.4779C141.289 61.4949 141.108 61.4261 141.069 60.9359C140.954 59.5099 140.758 58.0901 140.587 56.6685C140.575 56.5613 140.515 56.4595 140.502 56.422H140.499ZM140.053 50.5553C139.701 47.3532 139.36 44.2582 139.018 41.1632C138.956 41.1543 138.893 41.1444 138.831 41.1355C137.383 44.2662 135.936 47.396 134.475 50.5553H140.053Z" fill="#FAC617"/>
<path d="M108.65 34.7955C108.288 36.7752 107.939 38.7459 107.563 40.7113C107.193 42.6482 106.795 44.5796 106.409 46.5129C106.48 46.545 106.552 46.5771 106.624 46.6093C106.998 46.1476 107.379 45.6904 107.746 45.2225C109.999 42.3535 112.252 39.4844 114.496 36.6091C115.002 35.9617 115.463 35.2804 115.972 34.6374C116.098 34.4785 116.336 34.324 116.529 34.3151C119.456 34.1856 122.385 34.0802 125.314 33.9722C125.383 33.9695 125.454 34.0034 125.578 34.0338C125.498 34.1758 125.451 34.2946 125.374 34.3892C122.412 38.0253 119.445 41.6579 116.483 45.2949C115.879 46.0369 115.273 46.7799 114.712 47.554C114.583 47.7308 114.541 48.0764 114.621 48.2809C115.514 50.5597 116.469 52.8153 117.347 55.0995C118.212 57.3498 119.009 59.6259 119.835 61.8922C119.859 61.9592 119.867 62.0324 119.9 62.1887C118.457 62.3003 117.052 62.4334 115.645 62.5093C114.172 62.5887 112.698 62.6245 111.224 62.6575C110.174 62.6807 110.169 62.6664 109.824 61.6538C108.868 58.8526 107.922 56.0487 106.963 53.2502C106.659 52.3662 106.325 51.4929 105.997 50.6169C105.963 50.5249 105.876 50.4535 105.745 50.2847C105.558 51.3187 105.386 52.2474 105.22 53.1779C104.728 55.9469 104.24 58.7169 103.747 61.4868C103.66 61.9735 103.714 62.6253 103.421 62.895C103.137 63.1567 102.492 63.0343 102.003 63.0638C99.7671 63.1986 97.5302 63.3352 95.2934 63.454C94.5254 63.4942 94.4129 63.3674 94.5817 62.5977C94.8389 61.4216 95.1764 60.2635 95.422 59.0857C96.0497 56.0755 96.6748 53.0636 97.2472 50.0427C97.9955 46.0923 98.6955 42.1329 99.4081 38.1762C99.5742 37.2529 99.6948 36.3216 99.8734 35.4009C99.9046 35.2393 100.116 34.9955 100.252 34.9902C102.97 34.8812 105.689 34.8017 108.407 34.7187C108.443 34.7178 108.479 34.741 108.648 34.7955H108.65Z" fill="#FAC617"/>
<path d="M93.1428 63.5415C92.4239 63.5852 91.7792 63.6388 91.1327 63.6611C88.9334 63.7362 86.7331 63.7924 84.5338 63.8764C84.0918 63.8933 84.0302 63.6281 83.9864 63.3084C83.8185 62.0779 83.6542 60.8474 83.4837 59.617C83.456 59.4143 83.4024 59.2151 83.3667 59.0437C80.4467 59.1098 77.5812 59.1865 74.7149 59.2249C74.2719 59.2312 74.0728 59.383 73.9067 59.767C73.2379 61.3109 72.5387 62.8423 71.8913 64.288C70.6376 64.3514 69.4652 64.4202 68.2918 64.4666C66.9336 64.5202 65.5746 64.5595 64.2155 64.5916C64.0003 64.597 63.7842 64.5282 63.4922 64.4818C63.7708 63.9058 64.0101 63.4084 64.2521 62.912C65.6701 60.0045 67.0694 57.0872 68.5133 54.1914C70.1786 50.8526 71.8806 47.5317 73.5719 44.2054C74.513 42.3543 75.464 40.5086 76.415 38.6629C76.8419 37.8342 77.2517 36.9939 77.7321 36.1974C77.8402 36.0179 78.2072 35.9277 78.4608 35.9143C80.5074 35.8099 82.5559 35.7304 84.6034 35.6509C85.8286 35.6036 87.0555 35.5884 88.2788 35.5197C88.8102 35.4893 89.0441 35.6831 89.1146 36.2028C89.3995 38.2887 89.7004 40.372 90.0058 42.4552C90.5782 46.3557 91.1524 50.2552 91.7373 54.1539C92.1659 57.0122 92.6124 59.867 93.049 62.7244C93.0865 62.9682 93.1062 63.2156 93.1437 63.5397L93.1428 63.5415ZM77.5027 53.1127C77.6053 53.1171 77.7714 53.1359 77.9366 53.1305C79.4288 53.0823 80.9209 53.01 82.413 52.9894C82.9559 52.9823 83.0238 52.7796 82.9702 52.2911C82.6657 49.5337 82.3987 46.7718 82.1139 44.0117C82.1041 43.9134 82.0451 43.8206 81.9585 43.5884C80.4441 46.8263 78.9841 49.9453 77.5027 53.1118V53.1127Z" fill="#FAC617"/>
<path d="M66.4045 68.6652C68.7601 68.5599 71.0782 68.4554 73.4749 68.3482C73.2204 69.6743 72.9874 70.8878 72.7543 72.1013C72.164 75.1776 71.5559 78.252 70.9943 81.3336C70.855 82.0962 70.7166 82.9275 71.205 83.6178C71.464 83.983 71.8658 84.3357 72.2783 84.4893C73.9625 85.1126 75.668 84.1705 76.2681 82.4078C76.9619 80.371 77.328 78.2672 77.6772 76.1536C78.0576 73.8524 78.5174 71.5638 78.93 69.268C79.1425 68.0884 79.13 68.1054 80.3328 68.0616C81.9964 68.0018 83.6582 67.9089 85.3209 67.833C85.5441 67.8232 85.7682 67.8312 86.0656 67.8312C85.8066 69.2528 85.5682 70.5851 85.3191 71.9156C84.6761 75.3517 83.9582 78.7753 83.4019 82.2248C82.8759 85.4885 80.9588 87.5405 78.0522 88.7835C75.8341 89.7318 73.5062 90.3024 71.0737 90.1015C69.904 90.0051 68.7315 89.7693 67.5966 89.464C65.2463 88.8317 63.6265 85.9957 63.839 83.8133C64.0292 81.8595 64.3266 79.9111 64.6713 77.9779C65.1865 75.0838 65.7866 72.204 66.3455 69.318C66.3813 69.1314 66.3804 68.9385 66.4036 68.667L66.4045 68.6652Z" fill="#E1D8D3"/>
<path d="M51.6392 82.8613C51.8973 81.6433 52.1526 80.4351 52.4098 79.2279C52.4571 79.0037 52.5188 78.7814 52.5554 78.5546C52.7223 77.5187 52.7206 77.5232 53.7492 77.4893C56.3317 77.4044 58.915 77.3134 61.4974 77.2294C61.7207 77.2223 61.9448 77.2482 62.218 77.2607C61.8501 79.1511 61.4939 80.9825 61.1367 82.814C60.8009 84.5338 60.4741 86.2545 60.1107 87.9681C60.0651 88.1824 59.8571 88.4628 59.6615 88.5298C58.072 89.0772 56.4897 89.6638 54.8637 90.0799C52.1714 90.7684 49.4363 91.072 46.7137 90.2264C43.8633 89.3406 42.0971 87.4118 41.6524 84.4499C41.0014 80.1155 42.2158 76.2686 45.0126 72.9298C46.9798 70.5814 49.4756 68.9999 52.5089 68.5097C55.8664 67.9668 59.1427 68.2677 62.1332 70.1233C62.5591 70.3876 62.6172 70.5921 62.3172 71.0136C61.2912 72.4575 60.3044 73.9291 59.3097 75.381C57.9327 74.5506 56.5397 73.7058 54.8779 73.7031C52.8822 73.6996 51.1543 74.4345 49.9372 76.0614C48.3424 78.1947 48.0325 80.6566 48.4308 83.2095C48.6657 84.7177 49.8631 85.7554 51.3954 85.7482C52.5063 85.7429 53.618 85.4696 54.7235 85.2839C54.8663 85.2598 55.0565 85.0651 55.0896 84.9187C55.2566 84.1811 55.3789 83.4337 55.5361 82.5889C54.1975 82.6827 52.9501 82.7702 51.6383 82.8622L51.6392 82.8613Z" fill="#E1D8D3"/>
<path d="M124.769 67.7963C123.678 69.3849 122.641 70.8958 121.593 72.4209C119.85 71.5244 118.052 71.0726 116.143 71.3896C115.583 71.4824 115.018 71.7655 114.541 72.087C113.823 72.57 113.858 73.2826 114.633 73.6621C115.434 74.0532 116.304 74.3006 117.143 74.6149C118.174 75.0025 119.252 75.3016 120.222 75.8079C121.457 76.4544 121.97 77.6563 122.067 78.9966C122.331 82.6194 119.972 86.1287 116.571 87.3779C113.859 88.3736 111.08 88.6638 108.269 88.1369C106.807 87.8628 105.415 87.2092 103.991 86.7261C103.697 86.6261 103.666 86.4528 103.826 86.1983C104.809 84.6294 105.786 83.0578 106.787 81.4532C107.511 81.7943 108.19 82.1372 108.886 82.4363C110.207 83.0042 111.59 83.2614 113.028 83.1382C113.713 83.0792 114.323 82.8167 114.812 82.3122C115.472 81.6318 115.418 80.9906 114.56 80.5638C113.883 80.2262 113.145 79.9878 112.411 79.7914C110.976 79.4074 109.586 78.9556 108.434 77.9644C106.912 76.6562 106.467 74.9819 106.926 73.096C107.706 69.9028 109.866 67.8374 112.798 66.6596C116.681 65.0996 120.539 65.2996 124.218 67.4275C124.395 67.5302 124.56 67.6552 124.769 67.7963Z" fill="#E1D8D3"/>
<path d="M90.1255 88.9594C90.4318 87.4065 90.7229 85.9278 91.0158 84.4482C91.2158 83.4364 91.4596 82.4301 91.5998 81.4103C91.6596 80.9773 91.5775 80.4906 91.4373 80.0691C90.6444 77.6939 89.8139 75.3311 88.9977 72.963C88.4137 71.269 87.8324 69.5742 87.2109 67.7695C87.7137 67.724 88.1039 67.6749 88.495 67.6561C90.3131 67.5677 92.132 67.5124 93.9474 67.3918C94.5251 67.3534 94.7341 67.6115 94.8475 68.0901C95.2672 69.8492 95.6913 71.6084 96.1137 73.3675C96.2191 73.8077 96.3271 74.247 96.5789 74.7569C97.9844 72.2718 99.39 69.7876 100.875 67.1632C103.003 67.0382 105.352 66.9007 107.702 66.7632C107.728 66.8168 107.755 66.8703 107.781 66.9239C107.271 67.6981 106.763 68.4732 106.25 69.2447C104.438 71.97 102.625 74.6944 100.812 77.4179C100.389 78.0537 100.011 78.7288 99.523 79.3119C98.7015 80.2932 98.5533 81.4862 98.33 82.6623C97.9996 84.4062 97.68 86.1519 97.3621 87.8977C97.2862 88.3173 97.1388 88.5272 96.628 88.5513C94.6412 88.6468 92.6571 88.8174 90.672 88.9585C90.5229 88.9692 90.372 88.9603 90.1229 88.9603L90.1255 88.9594Z" fill="#E1D8D3"/>
<path d="M30.9875 73.3791H12.581C12.581 73.3791 6.13747 72.9201 2.30669 70.4538C2.26294 70.4975 30.5911 69.9885 30.5911 69.9885L30.9875 73.3791Z" fill="#FAC617"/>
<path d="M130.707 68.8687L145.369 68.1945C145.369 68.1945 150.379 67.5043 153.257 64.9031C153.293 64.945 131.153 66.0282 131.153 66.0282L130.707 68.8678V68.8687Z" fill="#FAC617"/>
<g style="mix-blend-mode:multiply">
<path d="M64.9328 18.3606L67.2169 24.7381L65.5605 25.331L64.672 22.8504L63.4076 23.3031L64.2961 25.7837L62.6397 26.3767L60.3555 19.9992L62.0119 19.4062L62.8522 21.752L64.1166 21.2993L63.2763 18.9535L64.9328 18.3606Z" fill="#282923"/>
<path d="M72.4698 23.7271L71.943 22.4582L70.4267 22.6966L70.2937 24.0691L68.8828 24.2905L69.5802 17.3237L71.4179 17.0353L74.2441 23.4485L72.4707 23.7271H72.4698ZM70.4919 21.1893L71.4081 21.0455L70.6455 19.1757L70.4919 21.1893Z" fill="#282923"/>
<path d="M80.0454 21.7903L80.0213 23.453L76.0039 23.3941L76.1039 16.6201L77.863 16.646L77.788 21.7573L80.0463 21.7903H80.0454Z" fill="#282923"/>
<path d="M84.9623 24.1746L84.881 22.803L83.3701 22.5297L82.7942 23.7826L81.3887 23.529L84.3345 17.1774L86.1651 17.5078L86.7294 24.4934L84.9632 24.1746H84.9623ZM83.9273 21.1287L84.8399 21.2939L84.7328 19.2776L83.9273 21.1287Z" fill="#282923"/>
<path d="M92.7377 24.8453L92.1653 26.4061L88.3926 25.0239L90.7232 18.6633L92.3752 19.2688L90.616 24.0684L92.7368 24.8453H92.7377Z" fill="#282923"/>
</g>
<path d="M65.5109 17.7864L67.7951 24.1639L66.1386 24.7568L65.2501 22.2762L63.9857 22.7289L64.8742 25.2095L63.2178 25.8024L60.9336 19.4249L62.59 18.832L63.4303 21.1778L64.6947 20.7251L63.8545 18.3793L65.5109 17.7864Z" fill="white"/>
<path d="M73.046 23.1531L72.5191 21.8842L71.0029 22.1226L70.8699 23.4951L69.459 23.7166L70.1564 16.7497L71.9941 16.4613L74.8203 22.8745L73.0469 23.1531H73.046ZM71.0681 20.6144L71.9843 20.4707L71.2217 18.6008L71.0681 20.6144Z" fill="white"/>
<path d="M80.6216 21.2153L80.5975 22.8779L76.5801 22.819L76.6801 16.045L78.4392 16.0709L78.3642 21.1822L80.6225 21.2153H80.6216Z" fill="white"/>
<path d="M85.5345 23.6003L85.4533 22.2288L83.9424 21.9555L83.3665 23.2083L81.9609 22.9547L84.9068 16.6031L86.7374 16.9335L87.3017 23.9191L85.5354 23.6003H85.5345ZM84.4996 20.5536L85.4122 20.7188L85.3051 18.7025L84.4996 20.5536Z" fill="white"/>
<path d="M93.3139 24.2701L92.7415 25.831L88.9688 24.4487L91.2994 18.0881L92.9513 18.6936L91.1922 23.4932L93.313 24.2701H93.3139Z" fill="white"/>
<path d="M54.5492 100.14L53.1152 99.0032L54.0153 96.6039L53.6072 96.2806L52.0918 98.1924L50.7988 97.1673L54.7618 92.1694L56.9629 93.9143C57.4487 94.2991 57.7183 94.7331 57.7737 95.2153C57.8282 95.6984 57.6808 96.1601 57.3299 96.6021C57.1013 96.8905 56.8504 97.1057 56.5763 97.2477C56.3021 97.3906 55.9485 97.4263 55.5145 97.3566L54.5492 100.14ZM54.4555 95.2117L55.0082 95.6502C55.1707 95.7788 55.3333 95.8422 55.4958 95.8404C55.6583 95.8386 55.8021 95.7591 55.9253 95.6029C56.1789 95.2832 56.1396 94.9921 55.8083 94.7295L55.2127 94.2572L54.4546 95.2126L54.4555 95.2117Z" fill="white"/>
<path d="M61.2663 102.292L60.5358 103.629L56.9863 101.688L60.0465 96.0914L63.596 98.0318L62.8897 99.323L60.7609 98.1586L60.3171 98.9703L62.0387 99.9115L61.3591 101.154L59.6375 100.212L59.1375 101.127L61.2663 102.291V102.292Z" fill="white"/>
<path d="M63.1063 102.796L64.6592 103.006C64.6065 103.532 64.8315 103.887 65.3333 104.066C65.7236 104.207 65.9638 104.153 66.0513 103.908C66.0977 103.779 66.0888 103.662 66.0245 103.557C65.9602 103.453 65.8218 103.332 65.6093 103.193C64.794 102.673 64.3189 102.205 64.1841 101.789C64.0493 101.372 64.06 100.945 64.218 100.504C64.4207 99.9383 64.7708 99.5329 65.2681 99.2874C65.7646 99.0418 66.3531 99.0409 67.0326 99.2847C68.0631 99.6544 68.5676 100.39 68.5471 101.491H67.0951C67.1059 101.042 66.9076 100.744 66.4995 100.597C66.1611 100.476 65.9468 100.539 65.8575 100.789C65.8173 100.901 65.8245 101.001 65.8789 101.09C65.9334 101.18 66.0611 101.291 66.2611 101.425C66.8121 101.795 67.1943 102.083 67.4068 102.291C67.6193 102.499 67.7604 102.776 67.8291 103.12C67.8979 103.465 67.8631 103.829 67.7256 104.213C67.5077 104.82 67.1237 105.238 66.5728 105.466C66.0218 105.693 65.4092 105.686 64.735 105.444C63.5019 105.001 62.959 104.118 63.1081 102.795L63.1063 102.796Z" fill="white"/>
<path d="M72.7592 102.519L71.7841 107.27L70.2517 106.956L71.2269 102.205L70.1348 101.98L70.4419 100.484L74.1575 101.246L73.8504 102.743L72.7583 102.519H72.7592Z" fill="white"/>
<path d="M77.9435 108.001L77.7274 106.725L76.2907 106.625L75.8817 107.857L74.5449 107.764L76.6425 101.516L78.3828 101.637L79.6232 108.117L77.9426 108L77.9435 108.001ZM76.6675 105.257L77.5354 105.317L77.23 103.441L76.6684 105.257H76.6675Z" fill="white"/>
<path d="M85.8369 101.362L86.1807 105.572C86.2459 106.37 86.0932 106.96 85.7226 107.342C85.3521 107.724 84.8457 107.941 84.2046 107.993C83.5295 108.048 82.9732 107.925 82.5366 107.623C82.0999 107.321 81.8499 106.792 81.7883 106.034L81.4355 101.721L83.1081 101.584L83.442 105.668C83.467 105.973 83.5394 106.19 83.659 106.321C83.7787 106.451 83.9573 106.508 84.1948 106.488C84.393 106.472 84.5511 106.408 84.6698 106.297C84.7886 106.186 84.8547 106.066 84.869 105.936C84.8832 105.807 84.8752 105.558 84.8457 105.188L84.5421 101.467L85.8378 101.361L85.8369 101.362Z" fill="white"/>
<path d="M93.9245 106.091L92.1493 106.534L90.7965 104.358L90.2911 104.484L90.8822 106.85L89.2811 107.25L87.7363 101.061L90.4616 100.38C91.0626 100.23 91.5716 100.28 91.9877 100.532C92.4038 100.783 92.6797 101.182 92.8164 101.73C92.9056 102.086 92.9226 102.416 92.869 102.721C92.8155 103.025 92.6279 103.328 92.3083 103.629L93.9254 106.091H93.9245ZM89.9607 103.16L90.6447 102.99C90.8456 102.94 90.9956 102.849 91.093 102.719C91.1903 102.589 91.2153 102.427 91.1662 102.233C91.067 101.838 90.8126 101.69 90.4027 101.793L89.6651 101.977L89.9607 103.16Z" fill="white"/>
<path d="M99.3506 103.954L98.5692 102.923L97.2495 103.499L97.4566 104.781L96.2288 105.316L95.1992 98.8068L96.7985 98.1094L100.894 103.281L99.3506 103.955V103.954ZM96.9494 102.111L97.7468 101.762L96.6083 100.241L96.9494 102.111Z" fill="white"/>
<path d="M107.016 99.4875L105.895 100.228L103.114 98.6865C102.757 98.4892 102.356 98.2275 101.911 97.9025C102.21 98.1981 102.438 98.4651 102.596 98.7044L104.297 101.282L103.179 102.02L99.666 96.6961L100.968 95.8371L103.3 97.0971C103.765 97.3471 104.147 97.5837 104.448 97.8069C104.077 97.398 103.735 96.956 103.421 96.48L102.381 94.904L103.502 94.1637L107.015 99.4875H107.016Z" fill="white"/>
<path d="M107.678 92.5195L110.965 96.0868L109.814 97.1468L106.527 93.5794L105.708 94.3349L104.672 93.2115L107.461 90.6416L108.497 91.7649L107.678 92.5204V92.5195Z" fill="white"/>
<g style="mix-blend-mode:multiply">
<path d="M54.0903 100.831L52.6562 99.6938L53.5563 97.2944L53.1482 96.9711L51.6328 98.883L50.3398 97.8579L54.3028 92.86L56.5039 94.6048C56.9897 94.9897 57.2594 95.4237 57.3147 95.9059C57.3692 96.3889 57.2219 96.8506 56.8709 97.2926C56.6423 97.581 56.3914 97.7962 56.1173 97.9382C55.8431 98.0811 55.4895 98.1168 55.0555 98.0472L54.0903 100.831ZM53.9965 95.9014L54.5492 96.3398C54.7118 96.4684 54.8743 96.5318 55.0368 96.53C55.1993 96.5282 55.3431 96.4488 55.4663 96.2925C55.7199 95.9728 55.6806 95.6817 55.3493 95.4192L54.7537 94.9468L53.9956 95.9023L53.9965 95.9014Z" fill="#282923"/>
<path d="M60.8014 102.981L60.071 104.318L56.5215 102.378L59.5816 96.7808L63.1311 98.7212L62.4248 100.012L60.296 98.848L59.8522 99.6596L61.5738 100.601L60.8943 101.843L59.1727 100.902L58.6726 101.816L60.8014 102.981V102.981Z" fill="#282923"/>
<path d="M62.6473 103.486L64.2002 103.696C64.1475 104.223 64.3725 104.577 64.8744 104.757C65.2646 104.897 65.5048 104.843 65.5923 104.598C65.6387 104.469 65.6298 104.352 65.5655 104.248C65.5012 104.143 65.3628 104.022 65.1503 103.883C64.335 103.363 63.86 102.895 63.7251 102.479C63.5903 102.063 63.601 101.635 63.759 101.195C63.9617 100.629 64.3118 100.223 64.8092 99.9776C65.3056 99.732 65.8941 99.7311 66.5736 99.9749C67.6041 100.345 68.1086 101.08 68.0881 102.181H66.6362C66.6469 101.732 66.4486 101.434 66.0406 101.288C65.7021 101.166 65.4878 101.229 65.3985 101.48C65.3583 101.591 65.3655 101.691 65.4199 101.78C65.4744 101.87 65.6021 101.981 65.8021 102.115C66.3531 102.485 66.7353 102.773 66.9478 102.981C67.1603 103.19 67.3014 103.466 67.3702 103.81C67.4389 104.155 67.4041 104.519 67.2666 104.903C67.0487 105.51 66.6647 105.928 66.1138 106.156C65.5628 106.384 64.9503 106.376 64.2761 106.134C63.0429 105.692 62.5 104.808 62.6491 103.485L62.6473 103.486Z" fill="#282923"/>
<path d="M72.3002 103.209L71.3251 107.961L69.7928 107.646L70.7679 102.895L69.6758 102.671L69.983 101.174L73.6985 101.937L73.3914 103.433L72.2993 103.209H72.3002Z" fill="#282923"/>
<path d="M77.4845 108.691L77.2684 107.416L75.8317 107.316L75.4227 108.547L74.0859 108.455L76.1835 102.207L77.9239 102.327L79.1642 108.807L77.4836 108.69L77.4845 108.691ZM76.2085 105.946L77.0764 106.007L76.7711 104.131L76.2094 105.946H76.2085Z" fill="#282923"/>
<path d="M85.3779 102.051L85.7217 106.261C85.7869 107.06 85.6342 107.649 85.2636 108.031C84.8931 108.413 84.3868 108.63 83.7456 108.682C83.0705 108.737 82.5142 108.614 82.0776 108.312C81.6409 108.011 81.3909 107.481 81.3293 106.723L80.9766 102.41L82.6491 102.273L82.983 106.358C83.008 106.662 83.0804 106.879 83.2 107.01C83.3197 107.141 83.4983 107.197 83.7358 107.177C83.934 107.161 84.0921 107.097 84.2108 106.986C84.3296 106.876 84.3957 106.755 84.41 106.626C84.4243 106.496 84.4162 106.247 84.3868 105.877L84.0832 102.156L85.3788 102.05L85.3779 102.051Z" fill="#282923"/>
<path d="M93.4655 106.781L91.6903 107.224L90.3375 105.048L89.8321 105.174L90.4232 107.54L88.8222 107.94L87.2773 101.751L90.0026 101.071C90.6036 100.921 91.1126 100.971 91.5287 101.222C91.9448 101.473 92.2207 101.872 92.3574 102.42C92.4467 102.776 92.4636 103.107 92.41 103.411C92.3565 103.716 92.169 104.018 91.8493 104.319L93.4664 106.781H93.4655ZM89.5026 103.849L90.1866 103.679C90.3875 103.629 90.5375 103.539 90.6349 103.408C90.7322 103.278 90.7572 103.116 90.7081 102.923C90.609 102.527 90.3545 102.38 89.9446 102.482L89.207 102.666L89.5026 103.849Z" fill="#282923"/>
<path d="M98.8896 104.644L98.1083 103.614L96.7885 104.19L96.9957 105.471L95.7679 106.007L94.7383 99.4973L96.3376 98.7999L100.434 103.972L98.8896 104.645V104.644ZM96.4885 102.801L97.2859 102.453L96.1474 100.931L96.4885 102.801Z" fill="#282923"/>
<path d="M106.557 100.178L105.436 100.918L102.655 99.3767C102.298 99.1794 101.897 98.9177 101.452 98.5927C101.751 98.8883 101.979 99.1552 102.137 99.3946L103.838 101.973L102.72 102.71L99.207 97.3863L100.509 96.5273L102.841 97.7872C103.306 98.0373 103.688 98.2739 103.989 98.4971C103.618 98.0882 103.276 97.6461 102.962 97.1702L101.923 95.5941L103.043 94.8539L106.556 100.178H106.557Z" fill="#282923"/>
<path d="M107.219 93.2088L110.506 96.7762L109.355 97.8361L106.068 94.2688L105.249 95.0242L104.213 93.9009L107.002 91.3309L108.038 92.4543L107.219 93.2097V93.2088Z" fill="#282923"/>
</g>
<path d="M54.5492 100.14L53.1152 99.0032L54.0153 96.6039L53.6072 96.2806L52.0918 98.1924L50.7988 97.1673L54.7618 92.1694L56.9629 93.9143C57.4487 94.2991 57.7183 94.7331 57.7737 95.2153C57.8282 95.6984 57.6808 96.1601 57.3299 96.6021C57.1013 96.8905 56.8504 97.1057 56.5763 97.2477C56.3021 97.3906 55.9485 97.4263 55.5145 97.3566L54.5492 100.14ZM54.4555 95.2117L55.0082 95.6502C55.1707 95.7788 55.3333 95.8422 55.4958 95.8404C55.6583 95.8386 55.8021 95.7591 55.9253 95.6029C56.1789 95.2832 56.1396 94.9921 55.8083 94.7295L55.2127 94.2572L54.4546 95.2126L54.4555 95.2117Z" fill="white"/>
<path d="M61.2663 102.292L60.5358 103.629L56.9863 101.688L60.0465 96.0914L63.596 98.0318L62.8897 99.323L60.7609 98.1586L60.3171 98.9703L62.0387 99.9115L61.3591 101.154L59.6375 100.212L59.1375 101.127L61.2663 102.291V102.292Z" fill="white"/>
<path d="M63.1063 102.796L64.6592 103.006C64.6065 103.532 64.8315 103.887 65.3333 104.066C65.7236 104.207 65.9638 104.153 66.0513 103.908C66.0977 103.779 66.0888 103.662 66.0245 103.557C65.9602 103.453 65.8218 103.332 65.6093 103.193C64.794 102.673 64.3189 102.205 64.1841 101.789C64.0493 101.372 64.06 100.945 64.218 100.504C64.4207 99.9383 64.7708 99.5329 65.2681 99.2874C65.7646 99.0418 66.3531 99.0409 67.0326 99.2847C68.0631 99.6544 68.5676 100.39 68.5471 101.491H67.0951C67.1059 101.042 66.9076 100.744 66.4995 100.597C66.1611 100.476 65.9468 100.539 65.8575 100.789C65.8173 100.901 65.8245 101.001 65.8789 101.09C65.9334 101.18 66.0611 101.291 66.2611 101.425C66.8121 101.795 67.1943 102.083 67.4068 102.291C67.6193 102.499 67.7604 102.776 67.8291 103.12C67.8979 103.465 67.8631 103.829 67.7256 104.213C67.5077 104.82 67.1237 105.238 66.5728 105.466C66.0218 105.693 65.4092 105.686 64.735 105.444C63.5019 105.001 62.959 104.118 63.1081 102.795L63.1063 102.796Z" fill="white"/>
<path d="M72.7592 102.519L71.7841 107.27L70.2517 106.956L71.2269 102.205L70.1348 101.98L70.4419 100.484L74.1575 101.246L73.8504 102.743L72.7583 102.519H72.7592Z" fill="white"/>
<path d="M77.9435 108.001L77.7274 106.725L76.2907 106.625L75.8817 107.857L74.5449 107.764L76.6425 101.516L78.3828 101.637L79.6232 108.117L77.9426 108L77.9435 108.001ZM76.6675 105.257L77.5354 105.317L77.23 103.441L76.6684 105.257H76.6675Z" fill="white"/>
<path d="M85.8369 101.362L86.1807 105.572C86.2459 106.37 86.0932 106.96 85.7226 107.342C85.3521 107.724 84.8457 107.941 84.2046 107.993C83.5295 108.048 82.9732 107.925 82.5366 107.623C82.0999 107.321 81.8499 106.792 81.7883 106.034L81.4355 101.721L83.1081 101.584L83.442 105.668C83.467 105.973 83.5394 106.19 83.659 106.321C83.7787 106.451 83.9573 106.508 84.1948 106.488C84.393 106.472 84.5511 106.408 84.6698 106.297C84.7886 106.186 84.8547 106.066 84.869 105.936C84.8832 105.807 84.8752 105.558 84.8457 105.188L84.5421 101.467L85.8378 101.361L85.8369 101.362Z" fill="white"/>
<path d="M93.9245 106.091L92.1493 106.534L90.7965 104.358L90.2911 104.484L90.8822 106.85L89.2811 107.25L87.7363 101.061L90.4616 100.38C91.0626 100.23 91.5716 100.28 91.9877 100.532C92.4038 100.783 92.6797 101.182 92.8164 101.73C92.9056 102.086 92.9226 102.416 92.869 102.721C92.8155 103.025 92.6279 103.328 92.3083 103.629L93.9254 106.091H93.9245ZM89.9607 103.16L90.6447 102.99C90.8456 102.94 90.9956 102.849 91.093 102.719C91.1903 102.589 91.2153 102.427 91.1662 102.233C91.067 101.838 90.8126 101.69 90.4027 101.793L89.6651 101.977L89.9607 103.16Z" fill="white"/>
<path d="M99.3506 103.954L98.5692 102.923L97.2495 103.499L97.4566 104.781L96.2288 105.316L95.1992 98.8068L96.7985 98.1094L100.894 103.281L99.3506 103.955V103.954ZM96.9494 102.111L97.7468 101.762L96.6083 100.241L96.9494 102.111Z" fill="white"/>
<path d="M107.016 99.4875L105.895 100.228L103.114 98.6865C102.757 98.4892 102.356 98.2275 101.911 97.9025C102.21 98.1981 102.438 98.4651 102.596 98.7044L104.297 101.282L103.179 102.02L99.666 96.6961L100.968 95.8371L103.3 97.0971C103.765 97.3471 104.147 97.5837 104.448 97.8069C104.077 97.398 103.735 96.956 103.421 96.48L102.381 94.904L103.502 94.1637L107.015 99.4875H107.016Z" fill="white"/>
<path d="M107.678 92.5195L110.965 96.0868L109.814 97.1468L106.527 93.5794L105.708 94.3349L104.672 93.2115L107.461 90.6416L108.497 91.7649L107.678 92.5204V92.5195Z" fill="white"/>
</svg>
